<svg width="562" height="562" viewBox="0 0 562 562" fill="none" xmlns="http://www.w3.org/2000/svg">
<path d="M141 321.5H416M141 321.5L115.5 429H436.5L416 321.5M141 321.5L121 332.5L88 455H320M416 321.5H436.5L465.5 455H358M320 455V500C327.667 491.5 346 479.6 358 500V455M320 455H358" stroke="#D1233A" stroke-width="10"/>
<path d="M410.5 136H126V174.5H410.5V136Z" stroke="#D42037" stroke-width="10"/>
<path d="M243.5 511.5V41H297.5V511.5H243.5Z" stroke="#D1233A" stroke-width="10"/>
<circle cx="281" cy="281" r="275" stroke="#55A6D9" stroke-width="12"/>
<path d="M178 55.5439C178 55.5439 163 60.5877 163 66.5439C163 72.5 164 66.5439 170.5 100.544C175.955 129.079 195.424 168.544 205.5 184.544C205.5 184.544 230 217.044 245.5 226.044C293 241.044 310 236.544 312.5 236.544C326.5 232.544 324 232.544 330 232.544C356.5 230.044 366 252.544 366 250.044C371.2 230.444 367.167 215.877 364.5 211.044C360.5 204.544 351 204.344 349.5 203.044C342 196.544 342.5 196.044 340 190.544C338 186.144 342.5 180.044 345 177.544C370 147.544 375.325 109.71 378 99.5439C380.5 90.0439 381 23.0439 378 25.0439C375 27.0439 341 100.044 320 124.044C299 148.044 278 149.044 274 149.044C236.8 151.444 194.5 87.7105 178 55.5439Z" stroke="#55A6D9" stroke-width="10"/>
<circle cx="350.5" cy="219.5" r="5.5" fill="#55A6D9"/>
</svg>
