<svg xmlns="http://www.w3.org/2000/svg" version="1.1" xmlns:xlink="http://www.w3.org/1999/xlink" xmlns:svgjs="http://svgjs.com/svgjs" width="1440" height="560" preserveAspectRatio="none" viewBox="0 0 1440 560"><g mask="url(&quot;#SvgjsMask2260&quot;)" fill="none"><rect width="1440" height="560" x="0" y="0" fill="url(#SvgjsLinearGradient2261)"></rect><path d="M1512 560L0 560 L0 296.2Q29.61 253.81, 72 283.41Q150.72 242.13, 192 320.85Q265.32 274.18, 312 347.5Q318.78 282.28, 384 289.07Q452.56 237.63, 504 306.19Q573.15 255.35, 624 324.5Q708.85 289.35, 744 374.19Q766.19 324.38, 816 346.58Q837.1 295.68, 888 316.78Q929.95 238.73, 1008 280.68Q1073.06 225.74, 1128 290.79Q1212.34 255.13, 1248 339.46Q1297.36 316.82, 1320 366.18Q1349.68 323.87, 1392 353.55Q1438.98 280.53, 1512 327.52z" fill="#182f5d"></path><path d="M1488 560L0 560 L0 397.6Q16.87 342.47, 72 359.34Q138.86 306.19, 192 373.05Q245.05 354.1, 264 407.14Q314.01 385.15, 336 435.17Q347.22 374.39, 408 385.62Q432.54 338.16, 480 362.7Q532.95 343.65, 552 396.6Q612.21 384.81, 624 445.02Q636.5 337.52, 744 350.02Q810.13 296.15, 864 362.28Q945.48 323.76, 984 405.24Q1031.72 332.96, 1104 380.68Q1166.77 371.45, 1176 434.22Q1192.75 378.97, 1248 395.72Q1291.47 319.2, 1368 362.67Q1460.92 335.6, 1488 428.52z" fill="#25467d"></path><path d="M1488 560L0 560 L0 512.7Q23.69 416.39, 120 440.09Q163.94 412.02, 192 455.96Q257.41 401.37, 312 466.78Q380.1 414.88, 432 482.98Q469.38 400.36, 552 437.73Q605.97 371.7, 672 425.67Q777.02 410.69, 792 515.7Q816.37 468.07, 864 492.44Q880.75 437.19, 936 453.95Q959.52 405.47, 1008 428.99Q1100.32 401.31, 1128 493.62Q1138.67 432.3, 1200 442.97Q1229.61 400.58, 1272 430.18Q1335.95 422.13, 1344 486.09Q1391.48 461.57, 1416 509.05Q1420.33 441.38, 1488 445.7z" fill="#356cb1"></path><path d="M1536 560L0 560 L0 561.49Q39.06 480.55, 120 519.61Q149.2 476.81, 192 506Q257.01 499.01, 264 564.02Q281.73 509.75, 336 527.48Q360.23 479.71, 408 503.94Q461.29 485.23, 480 538.52Q532.3 518.82, 552 571.11Q554.64 501.75, 624 504.39Q654.96 463.35, 696 494.3Q756.66 482.97, 768 543.63Q785.87 489.5, 840 507.37Q892.42 439.8, 960 492.22Q1063.95 476.17, 1080 580.12Q1103.61 531.73, 1152 555.34Q1167.39 498.73, 1224 514.12Q1297.63 467.75, 1344 541.39Q1358.2 483.59, 1416 497.78Q1490.35 452.13, 1536 526.48z" fill="white"></path></g><defs><mask id="SvgjsMask2260"><rect width="1440" height="560" fill="#ffffff"></rect></mask><linearGradient x1="50%" y1="100%" x2="50%" y2="0%" gradientUnits="userSpaceOnUse" id="SvgjsLinearGradient2261"><stop stop-color="rgba(14, 42, 71, 1)" offset="0"></stop><stop stop-color="rgba(255, 255, 255, 0)" offset="0.19"></stop></linearGradient></defs></svg>